<?xml version="1.0" encoding="UTF-8"?>
<svg id="Capa_1" data-name="Capa 1" xmlns="http://www.w3.org/2000/svg" version="1.1" viewBox="0 0 800 800">
  <defs>
    <style>
      .cls-1 {
        fill: #fff;
        stroke-width: 0px;
      }
    </style>
  </defs>
  <path class="cls-1" d="M772.3,324.3h0s-.2-1.9-.2-1.9c0,0,0,0,0,0,0,0,0,0,0,0l-.9-7.2c-.2-1.4-.4-3.1-.6-5l-.2-1.5h-.4c-9.1-51.8-34.2-101.1-73-143.1-38.6-41.8-88.8-74.9-145.2-95.5-48.3-17.7-99.5-26.7-152.2-26.7s-140.3,16.7-199.9,48.4C84.7,152.6,17,264.9,27,377.5c5.2,58.3,28,113.8,66,160.5,35.8,44,84.2,79.4,140,102.6,34.3,14.2,68.2,20.9,104.2,28l4.2.8c9.9,2,12.5,4.6,13.2,5.7,1.3,2,.6,5.9,0,8-.5,2-1,4-1.4,5.9-3.9,15.7-7.8,32-4.7,49.9,3.6,20.6,16.5,32.4,35.3,32.4h0c20.3,0,43.3-13.6,58.6-22.6l2-1.2c36.4-21.4,70.7-45.5,96.5-64.1,56.5-40.8,120.5-87,168.5-146.7,48.3-60.2,71.1-137.6,62.6-212.6ZM258.9,438.3h-64.5c-9.8,0-17.7-7.9-17.7-17.7v-135.4c0-9.8,7.9-17.7,17.7-17.7s17.7,7.9,17.7,17.7v117.8h46.9c9.8,0,17.7,7.9,17.7,17.7,0,9.8-7.9,17.7-17.7,17.7ZM326.3,420.2c0,9.8-7.9,17.7-17.7,17.7s-17.7-7.9-17.7-17.7v-135.4c0-9.8,7.9-17.7,17.7-17.7s17.7,7.9,17.7,17.7v135.4ZM485.9,420.2c0,7.7-4.9,14.4-12.2,16.8-1.8.6-3.6.9-5.5.9-5.5,0-10.9-2.6-14.3-7.3l-63.6-87.6v77.2c0,9.8-7.9,17.7-17.7,17.7s-17.7-7.9-17.7-17.7v-131.6c0-7.7,4.9-14.4,12.2-16.8,7.3-2.4,15.2.2,19.7,6.4l63.6,87.6v-81.1c0-9.8,7.9-17.7,17.7-17.7s17.7,7.9,17.7,17.7v135.4ZM614.5,435.1h-87.4c-9.8,0-17.7-7.9-17.7-17.7v-135.4c0-9.8,7.9-17.7,17.7-17.7h84.7c9.8,0,17.7,7.9,17.7,17.7s-7.9,17.7-17.7,17.7h-67v32.4h54.4c9.8,0,17.7,7.9,17.7,17.7s-7.9,17.7-17.7,17.7h-54.4v32.4h69.7c9.8,0,17.7,7.9,17.7,17.7s-7.9,17.7-17.7,17.7Z"/>
</svg>