<?xml version="1.0" encoding="UTF-8"?>
<svg id="Layer_1" data-name="Layer 1" xmlns="http://www.w3.org/2000/svg" version="1.1" viewBox="0 0 448 512">
  <defs>
    <style>
      .cls-1 {
        fill: #fff;
        stroke-width: 0px;
      }
    </style>
  </defs>
  <path class="cls-1" d="M416,0C400,0,288,32,288,176v112c0,35.3,28.7,64,64,64h32v128c0,17.7,14.3,32,32,32s32-14.3,32-32V32C448,14.3,433.7,0,416,0ZM64,16c0-8.2-6.1-15-14.3-15.9-8.2-.9-15.5,4.5-17.3,12.4L2.1,148.8c-1.4,6.3-2.1,12.7-2.1,19.1,0,45.9,35.1,83.6,80,87.7v224.4c0,17.7,14.3,32,32,32s32-14.3,32-32v-224.4c44.9-4.1,80-41.8,80-87.7s-.7-12.8-2.1-19.1L191.6,12.5c-1.8-8-9.3-13.3-17.4-12.4s-14.2,7.7-14.2,15.9v134.2c0,5.4-4.4,9.8-9.8,9.8s-9.3-3.9-9.8-9L127.9,14.6C127.2,6.3,120.3,0,112,0s-15.2,6.3-15.9,14.6l-12.4,136.4c-.5,5.1-4.7,9-9.8,9s-9.8-4.4-9.8-9.8V16h0ZM112.3,168h-.6l.3-.7.3.7Z"/>
</svg>