<?xml version="1.0" encoding="UTF-8"?>
<svg id="Layer_1" data-name="Layer 1" xmlns="http://www.w3.org/2000/svg" version="1.1" viewBox="0 0 64 64">
  <defs>
    <style>
      .cls-1 {
        fill: none;
        stroke: #fff;
        stroke-miterlimit: 10;
        stroke-width: 3px;
      }
    </style>
  </defs>
  <path class="cls-1" d="M32,7c-13.8,0-25,11.2-25,25s11.2,25,25,25,25-11.2,25-25S45.8,7,32,7Z"/>
  <path class="cls-1" d="M32,58.5c-14.6,0-26.5-11.9-26.5-26.5S17.4,5.5,32,5.5s26.5,11.9,26.5,26.5-11.9,26.5-26.5,26.5ZM32,8.5c-13,0-23.5,10.5-23.5,23.5s10.5,23.5,23.5,23.5,23.5-10.5,23.5-23.5-10.5-23.5-23.5-23.5Z"/>
  <path class="cls-1" d="M43.2,26h-22.5c-.9,0-1.5-.6-1.5-1.5s.6-1.5,1.5-1.5h22.5c.8,0,1.5.6,1.5,1.5s-.7,1.5-1.5,1.5ZM43.2,33.5h-22.5c-.9,0-1.5-.7-1.5-1.5s.6-1.5,1.5-1.5h22.5c.8,0,1.5.6,1.5,1.5s-.7,1.5-1.5,1.5Z"/>
  <path class="cls-1" d="M43.2,41h-22.5c-.9,0-1.5-.7-1.5-1.5s.6-1.5,1.5-1.5h22.5c.8,0,1.5.7,1.5,1.5s-.7,1.5-1.5,1.5Z"/>
</svg>