<?xml version="1.0" encoding="UTF-8"?>
<svg id="Capa_1" data-name="Capa 1" xmlns="http://www.w3.org/2000/svg" version="1.1" viewBox="0 0 800 800">
  <defs>
    <style>
      .cls-1 {
        fill: #fff;
        stroke-width: 0px;
      }
    </style>
  </defs>
  <path class="cls-1" d="M190.8,400c0,17-13.8,30.8-30.8,30.8h-61.5c-17,0-30.8-13.8-30.8-30.8h0c0-17,13.8-30.8,30.8-30.8h61.5c17,0,30.8,13.8,30.8,30.8h0ZM190.8,203.1c0-17-13.8-30.8-30.8-30.8h-61.5c-17,0-30.8,13.8-30.8,30.8h0c0,17,13.8,30.8,30.8,30.8h61.5c17,0,30.8-13.8,30.8-30.8h0ZM190.8,596.9c0-17-13.8-30.8-30.8-30.8h-61.5c-17,0-30.8,13.8-30.8,30.8h0c0,17,13.8,30.8,30.8,30.8h61.5c17,0,30.8-13.8,30.8-30.8h0ZM732.3,98.5v603.1c0,54.4-44.1,98.5-98.5,98.5H203.1c-54.4,0-98.5-44.1-98.5-98.5v-49.2h55.4c30.5,0,55.4-24.9,55.4-55.4s-24.8-55.4-55.4-55.4h-55.4v-86.2h55.4c30.5,0,55.4-24.8,55.4-55.4s-24.8-55.4-55.4-55.4h-55.4v-86.2h55.4c30.5,0,55.4-24.8,55.4-55.4s-24.8-55.4-55.4-55.4h-55.4v-49.2C104.6,44.1,148.7,0,203.1,0h430.8C688.2,0,732.3,44.1,732.3,98.5ZM342,291.9c0,52.4,42.5,94.9,94.9,94.9s94.9-42.5,94.9-94.9-42.5-94.9-94.9-94.9-94.9,42.5-94.9,94.9ZM584.6,523.9c0-58.3-47.2-105.5-105.5-105.5h-84.4c-58.3,0-105.5,47.2-105.5,105.5v42.2h295.4v-42.2Z"/>
</svg>