<?xml version="1.0" encoding="UTF-8"?>
<svg id="Capa_1" data-name="Capa 1" xmlns="http://www.w3.org/2000/svg" version="1.1" viewBox="0 0 800 800">
  <defs>
    <style>
      .cls-1 {
        fill: #fff;
        stroke-width: 0px;
      }
    </style>
  </defs>
  <path class="cls-1" d="M398.4,152.1c-136.8,0-248,111.2-248,248s111.2,247.9,248,247.9,248-111.3,248-247.9-111.2-248-248-248ZM398.4,626.4c-124.9,0-226.4-101.5-226.4-226.3s101.5-226.5,226.4-226.5,226.4,101.7,226.4,226.5-101.5,226.3-226.4,226.3ZM608.9,400.1c0,116.2-94.2,210.4-210.5,210.4s-210.5-94.3-210.5-210.4,94.3-210.5,210.5-210.5c116.2,0,210.5,94.2,210.5,210.5ZM130.1,178.7v122.3c0,0-.1,0-.1,0-1.2,39-44,53.9-44,53.9v78.5h0v180.5c0,0-17.4,22.3-39.8,0v-259h.5c-26.1-11.1-45.4-15-46.6-53.9h-.2v-122.3h19.6c0,0,9.5,118.2,9.5,118.2h23.1l2.9-120.8h18.9l2.3,120.8h27.1l6.2-118.2h20.4ZM794,386.9h-48v242.6h-55.4V170.5h55.4s75.5,95.8,48,216.4Z"/>
</svg>