<?xml version="1.0" encoding="UTF-8"?>
<svg id="Layer_1" data-name="Layer 1" xmlns="http://www.w3.org/2000/svg" version="1.1" viewBox="0 0 512 512">
  <defs>
    <style>
      .cls-1 {
        fill: #fff;
        stroke-width: 0px;
      }
    </style>
  </defs>
  <path class="cls-1" d="M313.4,32.9c26,5.2,42.9,30.5,37.7,56.5l-2.3,11.4c-5.3,26.7-15.1,52.1-28.8,75.2h144c26.5,0,48,21.5,48,48s-10.5,34.6-25.9,42.6c10.9,8.8,17.9,22.3,17.9,37.4,0,23.4-16.8,42.9-38.9,47.1,4.4,7.3,6.9,15.8,6.9,24.9,0,21.3-13.9,39.4-33.1,45.6.7,3.3,1.1,6.8,1.1,10.4,0,26.5-21.5,48-48,48h-97.5c-19,0-37.5-5.6-53.3-16.1l-38.5-25.7c-26.7-17.8-42.7-47.8-42.7-79.9v-111.2c0-29.2,13.3-56.7,36-75l7.4-5.9c26.5-21.2,44.6-51,51.2-84.2l2.3-11.4c5.2-26,30.5-42.9,56.5-37.7h0ZM32,192h64c17.7,0,32,14.3,32,32v224c0,17.7-14.3,32-32,32H32c-17.7,0-32-14.3-32-32v-224c0-17.7,14.3-32,32-32Z"/>
</svg>