<?xml version="1.0" encoding="UTF-8"?>
<svg id="Layer_1" data-name="Layer 1" xmlns="http://www.w3.org/2000/svg" version="1.1" viewBox="0 0 800 800">
  <defs>
    <style>
      .cls-1 {
        fill: none;
        stroke: #fff;
        stroke-miterlimit: 10;
        stroke-width: 7px;
      }
    </style>
  </defs>
  <path class="cls-1" d="M584.9,457.5c-1.5-.7-57.7-28.4-67.7-32-4.1-1.5-8.4-2.9-13.1-2.9-7.6,0-14,3.8-18.9,11.2-5.6,8.3-22.6,28.2-27.8,34.1-.7.8-1.6,1.7-2.2,1.7s-9.2-3.6-11.8-4.7c-60.3-26.2-106-89.1-112.3-99.7-.9-1.5-.9-2.2-.9-2.2.2-.8,2.2-2.8,3.3-3.9,3.1-3,6.4-7,9.6-10.9,1.5-1.8,3-3.7,4.5-5.4,4.7-5.4,6.7-9.6,9.1-14.5l1.3-2.5c5.9-11.7.9-21.5-.8-24.7-1.3-2.7-25-59.9-27.6-65.9-6.1-14.5-14.1-21.3-25.2-21.3s0,0-4.3.2c-5.3.2-34,4-46.7,12-13.5,8.5-36.3,35.6-36.3,83.2s27.2,83.3,38.9,98.7c.3.4.8,1.2,1.6,2.3,44.7,65.3,100.5,113.7,157,136.3,54.4,21.7,80.2,24.2,94.8,24.2h0c6.2,0,11.1-.5,15.4-.9l2.8-.3c18.8-1.7,60.1-23.1,69.5-49.2,7.4-20.6,9.4-43,4.4-51.2-3.4-5.5-9.2-8.3-16.5-11.9Z"/>
  <path class="cls-1" d="M406.9,14.7C198.2,14.7,28.4,183.2,28.4,390.3s17.9,132.6,51.9,189.9L15.3,772c-1.2,3.6-.3,7.5,2.3,10.2,1.9,1.9,4.5,3,7.1,3s2-.2,3-.5l199.9-63.5c54.7,29.2,116.5,44.7,179.1,44.7,208.7,0,378.4-168.5,378.4-375.6S615.5,14.7,406.9,14.7ZM406.9,687.7c-58.9,0-115.9-17-164.9-49.2-1.6-1.1-3.6-1.6-5.5-1.6s-2,.2-3,.5l-100.2,31.8,32.3-95.4c1-3.1.5-6.5-1.4-9.1-37.3-51-57.1-111.3-57.1-174.3,0-164,134.5-297.4,299.8-297.4s299.7,133.4,299.7,297.4c0,163.9-134.5,297.3-299.7,297.3Z"/>
</svg>